<svg xmlns="http://www.w3.org/2000/svg" id="comp-k9b4ijb2svgcontent" width="200" height="200" aria-labelledby="comp-k9b4ijb2-svgtitle" data-bbox="28 28 144 144" data-type="color" preserveAspectRatio="xMidYMid meet" role="img" viewBox="28 28 144 144"><title id="comp-k9b4ijb2-svgtitle">Homepage</title><g><path fill="#D6CDAC" d="M100 172c-39.701 0-72-32.299-72-72h23.905c0 26.52 21.575 48.095 48.095 48.095S148.095 126.52 148.095 100 126.52 51.905 100 51.905V28c39.701 0 72 32.299 72 72s-32.299 72-72 72z" data-color="1"/><path fill="#272330" d="M125.554 100c0 14.113-11.44 25.554-25.554 25.554-14.113 0-25.554-11.44-25.554-25.554 0-14.113 11.44-25.554 25.554-25.554 14.113 0 25.554 11.44 25.554 25.554z" data-color="2"/></g></svg>
