<?xml version="1.0" encoding="utf-8"?>
<svg preserveAspectRatio="xMidYMid meet" id="comp-k9b4ijb2svgcontent" data-bbox="28 28 144 144" xmlns="http://www.w3.org/2000/svg" width="200" height="200" viewBox="28 28 144 144" data-type="color" role="img" aria-labelledby="comp-k9b4ijb2-svgtitle"><title id="comp-k9b4ijb2-svgtitle">Homepage</title>
    <g>
        <path fill="#D6CDAC" d="M100 172c-39.701 0-72-32.299-72-72h23.905c0 26.52 21.575 48.095 48.095 48.095S148.095 126.52 148.095 100 126.52 51.905 100 51.905V28c39.701 0 72 32.299 72 72s-32.299 72-72 72z" data-color="1"></path>
        <path d="M125.554 100c0 14.113-11.44 25.554-25.554 25.554-14.113 0-25.554-11.44-25.554-25.554 0-14.113 11.44-25.554 25.554-25.554 14.113 0 25.554 11.44 25.554 25.554z" fill="#272330" data-color="2"></path>
    </g>
</svg>