<svg xmlns="http://www.w3.org/2000/svg" width="100" height="100" viewBox="0 505.9 100 100"><title>Toolbox</title><path fill="#edd376" stroke="#edd376" stroke-linecap="round" stroke-width="4.79" d="m13.58 584.33c0.16 3.51 3.04 6.23 6.55 6.23l5.43 0 21.25 0 39.3 0c3.67 0 6.71-3.04 6.71-6.71l0-23.8-6.39 0.96 0 18.37-2.08 3.83-3.35 1.28-4.95 0.16-62.46-0.32zM86.42 560.05l4.47 0M86.42 560.05l4.47 0M86.42 560.05l4.47 0"/><path fill="#edd376" stroke="#edd376" stroke-linecap="round" stroke-width="4.79" d="m86.42 560.05 4.47 0c3.67 0 6.71-3.04 6.71-6.71l0-6.23c0-3.67-2.72-6.71-6.39-6.71l0 9.74-2.4 2.24-2.4 1.44 0 6.23z"/><line x1="7.03" x2="7.03" y1="555.42" y2="562.93" fill="none" stroke="#3b3b3b" stroke-linecap="round" stroke-width="4.79"/><path fill="none" stroke="#3b3b3b" stroke-linecap="round" stroke-width="4.79" d="m86.42 555.42 0 22.2c0 3.67-3.04 6.71-6.71 6.71l-39.3 0-21.25 0-5.43 0c-3.67 0-6.71-3.04-6.71-6.71l0-3.04M60.86 534.17l0-6.23M60.86 534.17l0-6.23M60.86 534.17l0-6.23"/><path fill="none" stroke="#3b3b3b" stroke-linecap="round" stroke-width="4.79" d="m60.86 534.17 0-6.23c0-3.67-3.04-6.71-6.71-6.71l-18.05 0c-3.67 0-6.71 3.04-6.71 6.71l0 6.23"/><line x1="53.19" x2="66.93" y1="553.82" y2="553.82" fill="none" stroke="#3b3b3b" stroke-linecap="round" stroke-width="4.79"/><path fill="none" stroke="#3b3b3b" stroke-linecap="round" stroke-width="4.79" d="m77.64 553.82 7.03 0c3.67 0 6.71-3.04 6.71-6.71l0-6.23c0-3.67-3.04-6.71-6.71-6.71l-75.56 0c-3.67 0-6.71 3.04-6.71 6.71l0 6.23c0 3.67 3.04 6.71 6.71 6.71l7.03 0 19.81 0M45.21 568.04 45.21 568.04 45.21 568.04"/><path fill="none" stroke="#3b3b3b" stroke-linecap="round" stroke-width="4.79" d="m45.21 568.04c2.72 0 7.35-4.15 7.35-6.87l0-10.7c0-2.72-2.24-4.79-4.79-4.79l-5.11 0c-2.72 0-4.79 2.24-4.79 4.79l0 10.54c-0.16 2.56 4.63 7.03 7.35 7.03l0 0z"/><line x1="37.7" x2="52.56" y1="556.7" y2="556.7" fill="none" stroke="#3b3b3b" stroke-linecap="round" stroke-width="4.79"/></svg>
